<svg version="1.1" xmlns="http://www.w3.org/2000/svg" width="1008" height="1024" viewBox="0 0 1008 1024">
										<title/>
										<g id="icomoon-ignore">
										</g>
										<path fill="none" stroke="#2290ff" stroke-width="32" stroke-miterlimit="10" stroke-linecap="round" stroke-linejoin="round" d="M0.272 504.384c0 97.2 78.8 176 176 176"/>
										<path fill="none" stroke="#2290ff" stroke-width="32" stroke-miterlimit="10" stroke-linecap="round" stroke-linejoin="round" d="M176.272 328.384c-97.2 0-176 78.8-176 176"/>
										<path fill="none" stroke="#2290ff" stroke-width="32" stroke-miterlimit="10" stroke-linecap="round" stroke-linejoin="round" d="M992.272 456.384c0-122.512-98.384-221.904-220.448-223.824"/>
										<path fill="none" stroke="#2290ff" stroke-width="32" stroke-miterlimit="10" stroke-linecap="round" stroke-linejoin="round" d="M768.272 680.384c123.712 0 224-100.288 224-224"/>
										<path fill="none" stroke="#2290ff" stroke-width="32" stroke-miterlimit="10" stroke-linecap="round" stroke-linejoin="round" d="M176.272 680.384h194.144"/>
										<path fill="none" stroke="#2290ff" stroke-width="32" stroke-miterlimit="10" stroke-linecap="round" stroke-linejoin="round" d="M768.272 680.384h-128"/>
										<path fill="none" stroke="#2290ff" stroke-width="32" stroke-miterlimit="10" stroke-linecap="round" stroke-linejoin="round" d="M496.272 56.384c145.84 0 267.696 102.704 297.184 239.712"/>
										<path fill="none" stroke="#2290ff" stroke-width="32" stroke-miterlimit="10" stroke-linecap="round" stroke-linejoin="round" d="M192.272 360.384c0-167.888 136.112-304 304-304"/>
										<path fill="#2290ff" d="M270.256 970.368c-8.72 0-15.824-7.104-15.824-15.824s7.088-15.824 15.824-15.824h21.792v-31.2c0-3.536 2.864-6.4 6.4-6.4h40.64v-89.712c0-27.584 13.68-53.152 36.592-68.448l91.824-61.168-91.824-61.168c-22.912-15.296-36.592-40.88-36.592-68.448v-89.712h-40.64c-3.536 0-6.4-2.88-6.4-6.4v-31.2h-21.792c-8.72 0-15.824-7.104-15.824-15.824s7.088-15.824 15.824-15.824h451.488c8.72 0 15.808 7.104 15.808 15.824s-7.088 15.824-15.808 15.824h-21.808v31.2c0 3.536-2.864 6.4-6.384 6.4h-40.64v89.712c0 27.584-13.68 53.152-36.592 68.448l-91.84 61.136 91.808 61.168c22.928 15.296 36.608 40.88 36.608 68.448v89.712h40.64c3.536 0 6.384 2.88 6.384 6.4v31.2h21.808c8.72 0 15.808 7.104 15.808 15.824s-7.088 15.824-15.808 15.824h-451.472zM668.32 938.72v-5.968h-344.64v5.968h344.64zM621.28 901.104v-89.712c0-16.976-8.4-32.736-22.496-42.144l-102.784-68.496-102.784 68.496c-14.080 9.408-22.496 25.168-22.496 42.144v89.712h250.56zM370.72 552.144c0 16.976 8.416 32.736 22.512 42.144l102.768 68.496 102.784-68.496c14.096-9.408 22.496-25.168 22.496-42.144v-89.712h-250.56v89.712zM668.32 430.784v-5.968h-344.64v5.968h344.64z"/>
										<path fill="#2290ff" d="M459.92 615.984c-3.12 0-6.24-0.992-8.8-2.752l-43.552-29.008c-12.448-8.256-19.904-22.128-19.904-37.104v-20.896c0-8.72 7.088-15.808 15.808-15.808s15.824 7.088 15.824 15.808v20.896c0 4.368 2.144 8.4 5.744 10.784l43.664 29.136c7.2 4.752 9.2 14.56 4.432 21.872-3.008 4.448-7.92 7.072-13.216 7.072z"/>
										<path fill="#2290ff" d="M592.432 859.2c-8.736 0-15.824-7.104-15.824-15.824v-20.896c0-4.352-2.16-8.384-5.76-10.768l-43.664-29.088c-7.2-4.832-9.184-14.64-4.4-21.904 2.976-4.448 7.872-7.088 13.184-7.088 3.12 0 6.16 0.928 8.752 2.672l43.632 29.056c12.464 8.272 19.904 22.16 19.904 37.12v20.896c0 8.72-7.104 15.824-15.824 15.824z"/>
									</svg>