<svg version="1.1" xmlns="http://www.w3.org/2000/svg" width="1008" height="1024" viewBox="0 0 1008 1024">
										<title/>
										<g id="icomoon-ignore3">
										</g>
										<path fill="none" stroke="#2290ff" stroke-width="32" stroke-miterlimit="10" stroke-linecap="round" stroke-linejoin="round" d="M816.832 688.064c0 176.731-143.269 320-320 320s-320-143.269-320-320c0-176.731 143.269-320 320-320s320 143.269 320 320z"/>
										<path fill="none" stroke="#2290ff" stroke-width="32" stroke-miterlimit="10" stroke-linecap="round" stroke-linejoin="round" d="M736.832 688.064c0 132.496-107.504 240-240 240s-240-107.504-240-240 107.504-240 240-240 240 107.504 240 240z"/>
										<path fill="none" stroke="#2290ff" stroke-width="32" stroke-miterlimit="10" stroke-linecap="round" stroke-linejoin="round" d="M672.832 688.064c0 97.136-78.864 176-176 176s-176-78.864-176-176 78.864-176 176-176 176 78.864 176 176z"/>
										<path fill="none" stroke="#2290ff" stroke-width="32" stroke-miterlimit="10" stroke-linecap="round" stroke-linejoin="round" d="M590.848 688.064c0 51.924-42.092 94.016-94.016 94.016s-94.016-42.092-94.016-94.016c0-51.924 42.092-94.016 94.016-94.016s94.016 42.092 94.016 94.016z"/>
										<path fill="none" stroke="#2290ff" stroke-width="32" stroke-miterlimit="10" stroke-linecap="round" stroke-linejoin="round" d="M304.832 208.064c0-106.048 85.952-192 192-192s192 85.952 192 192"/>
										<path fill="none" stroke="#2290ff" stroke-width="32" stroke-miterlimit="10" stroke-linecap="round" stroke-linejoin="round" d="M368.832 208.064c0-70.672 57.328-128 128-128s128 57.328 128 128"/>
										<path fill="none" stroke="#2290ff" stroke-width="32" stroke-miterlimit="10" stroke-linecap="round" stroke-linejoin="round" d="M304.832 208.064v224.144"/>
										<path fill="none" stroke="#2290ff" stroke-width="32" stroke-miterlimit="10" stroke-linecap="round" stroke-linejoin="round" d="M689.008 208.064v224.144"/>
										<path fill="none" stroke="#2290ff" stroke-width="32" stroke-miterlimit="10" stroke-linecap="round" stroke-linejoin="round" d="M368.832 208.064v186.64"/>
										<path fill="none" stroke="#2290ff" stroke-width="32" stroke-miterlimit="10" stroke-linecap="round" stroke-linejoin="round" d="M624.832 208.064v186.64"/>
										<path fill="none" stroke="#2290ff" stroke-width="32" stroke-miterlimit="10" stroke-linecap="round" stroke-linejoin="round" d="M496.832 512.064v-16"/>
										<path fill="none" stroke="#2290ff" stroke-width="32" stroke-miterlimit="10" stroke-linecap="round" stroke-linejoin="round" d="M496.832 880.064v-16"/>
										<path fill="none" stroke="#2290ff" stroke-width="32" stroke-miterlimit="10" stroke-linecap="round" stroke-linejoin="round" d="M408.832 535.648l-8-13.872"/>
										<path fill="none" stroke="#2290ff" stroke-width="32" stroke-miterlimit="10" stroke-linecap="round" stroke-linejoin="round" d="M592.832 854.336l-8-13.872"/>
										<path fill="none" stroke="#2290ff" stroke-width="32" stroke-miterlimit="10" stroke-linecap="round" stroke-linejoin="round" d="M344.4 600.064l-13.856-8"/>
										<path fill="none" stroke="#2290ff" stroke-width="32" stroke-miterlimit="10" stroke-linecap="round" stroke-linejoin="round" d="M663.104 784.064l-13.872-8.016"/>
										<path fill="none" stroke="#2290ff" stroke-width="32" stroke-miterlimit="10" stroke-linecap="round" stroke-linejoin="round" d="M320.832 688.064h-16"/>
										<path fill="none" stroke="#2290ff" stroke-width="32" stroke-miterlimit="10" stroke-linecap="round" stroke-linejoin="round" d="M688.832 688.064h-16.032"/>
										<path fill="none" stroke="#2290ff" stroke-width="32" stroke-miterlimit="10" stroke-linecap="round" stroke-linejoin="round" d="M344.4 776.064l-13.856 8"/>
										<path fill="none" stroke="#2290ff" stroke-width="32" stroke-miterlimit="10" stroke-linecap="round" stroke-linejoin="round" d="M663.104 592.064l-13.888 8.016"/>
										<path fill="none" stroke="#2290ff" stroke-width="32" stroke-miterlimit="10" stroke-linecap="round" stroke-linejoin="round" d="M408.832 840.464l-8 13.872"/>
										<path fill="none" stroke="#2290ff" stroke-width="32" stroke-miterlimit="10" stroke-linecap="round" stroke-linejoin="round" d="M592.832 521.776l-8.032 13.888"/>
									</svg>